<svg xmlns="http://www.w3.org/2000/svg"
    xmlns:xlink="http://www.w3.org/1999/xlink" width="317" zoomAndPan="magnify" viewBox="0 0 237.75 135.000003" height="180" preserveAspectRatio="xMidYMid meet" version="1.0">
    <defs>
        <g/>
    </defs>
    <g fill="#add8e6" fill-opacity="1">
        <g transform="translate(33.291509, 65.692765)">
            <g>
                <path d="M 48.65625 -48.203125 L 48.8125 -0.09375 L 0 0 L 0 -48.09375 L 24.40625 -36.703125 Z M 48.65625 -48.203125 "/>
            </g>
        </g>
    </g>
    <g fill="#add8e6" fill-opacity="1">
        <g transform="translate(33.291509, 119.651012)">
            <g>
                <path d="M 48.65625 -48.203125 L 48.8125 -0.09375 L 0 0 L 0 -48.09375 L 24.40625 -36.703125 Z M 48.65625 -48.203125 "/>
            </g>
        </g>
    </g>
    <g fill="#000000" fill-opacity="1">
        <g transform="translate(48.996174, 64.860213)">
            <g>
                <path d="M 24.53125 -18.671875 C 26.550781 -18.671875 28.101562 -18.019531 29.1875 -16.71875 C 30.269531 -15.425781 30.8125 -13.710938 30.8125 -11.578125 L 30.8125 0 L 25 0 L 25 -10.625 C 25 -11.414062 24.742188 -12.09375 24.234375 -12.65625 C 23.734375 -13.21875 23.085938 -13.5 22.296875 -13.5 C 21.410156 -13.5 20.753906 -13.1875 20.328125 -12.5625 C 19.898438 -11.9375 19.6875 -11.289062 19.6875 -10.625 L 19.6875 0 L 13.828125 0 L 13.828125 -10.625 C 13.828125 -11.414062 13.582031 -12.09375 13.09375 -12.65625 C 12.601562 -13.21875 11.960938 -13.5 11.171875 -13.5 C 10.285156 -13.5 9.628906 -13.1875 9.203125 -12.5625 C 8.773438 -11.9375 8.5625 -11.289062 8.5625 -10.625 L 8.5625 0 L 2.703125 0 L 2.703125 -18.3125 L 8.5625 -18.3125 L 8.5625 -16.0625 C 9.175781 -16.863281 9.898438 -17.5 10.734375 -17.96875 C 11.578125 -18.4375 12.515625 -18.671875 13.546875 -18.671875 C 14.710938 -18.671875 15.742188 -18.378906 16.640625 -17.796875 C 17.535156 -17.222656 18.242188 -16.445312 18.765625 -15.46875 C 19.347656 -16.476562 20.125 -17.265625 21.09375 -17.828125 C 22.070312 -18.390625 23.21875 -18.671875 24.53125 -18.671875 Z M 24.53125 -18.671875 "/>
            </g>
        </g>
    </g>
    <g fill="#000000" fill-opacity="1">
        <g transform="translate(80.314271, 64.860213)">
            <g>
                <path d="M 5.71875 -21.375 C 4.863281 -21.375 4.113281 -21.691406 3.46875 -22.328125 C 2.832031 -22.972656 2.515625 -23.722656 2.515625 -24.578125 C 2.515625 -25.460938 2.832031 -26.21875 3.46875 -26.84375 C 4.113281 -27.476562 4.863281 -27.796875 5.71875 -27.796875 C 6.601562 -27.796875 7.359375 -27.476562 7.984375 -26.84375 C 8.609375 -26.21875 8.921875 -25.460938 8.921875 -24.578125 C 8.921875 -23.722656 8.609375 -22.972656 7.984375 -22.328125 C 7.359375 -21.691406 6.601562 -21.375 5.71875 -21.375 Z M 2.796875 0 L 2.796875 -18.3125 L 8.609375 -18.3125 L 8.609375 0 Z M 2.796875 0 "/>
            </g>
        </g>
    </g>
    <g fill="#000000" fill-opacity="1">
        <g transform="translate(89.92934, 64.860213)">
            <g>
                <path d="M 11.625 0.359375 C 9.582031 0.359375 7.796875 -0.0507812 6.265625 -0.875 C 4.742188 -1.695312 3.554688 -2.820312 2.703125 -4.25 C 1.847656 -5.6875 1.421875 -7.320312 1.421875 -9.15625 C 1.421875 -10.988281 1.847656 -12.617188 2.703125 -14.046875 C 3.554688 -15.484375 4.742188 -16.613281 6.265625 -17.4375 C 7.796875 -18.257812 9.582031 -18.671875 11.625 -18.671875 C 14.375 -18.671875 16.632812 -17.945312 18.40625 -16.5 C 20.175781 -15.050781 21.257812 -13.179688 21.65625 -10.890625 L 15.609375 -10.890625 C 15.304688 -11.691406 14.800781 -12.316406 14.09375 -12.765625 C 13.394531 -13.222656 12.570312 -13.46875 11.625 -13.5 C 10.375 -13.46875 9.335938 -13.046875 8.515625 -12.234375 C 7.691406 -11.429688 7.28125 -10.40625 7.28125 -9.15625 C 7.28125 -7.9375 7.691406 -6.914062 8.515625 -6.09375 C 9.335938 -5.269531 10.375 -4.84375 11.625 -4.8125 C 12.570312 -4.84375 13.394531 -5.09375 14.09375 -5.5625 C 14.800781 -6.03125 15.304688 -6.648438 15.609375 -7.421875 L 21.65625 -7.421875 C 21.257812 -5.128906 20.175781 -3.257812 18.40625 -1.8125 C 16.632812 -0.363281 14.375 0.359375 11.625 0.359375 Z M 11.625 0.359375 "/>
            </g>
        </g>
    </g>
    <g fill="#000000" fill-opacity="1">
        <g transform="translate(110.808002, 64.860213)">
            <g>
                <path d="M 11.625 0.359375 C 9.582031 0.359375 7.796875 -0.0507812 6.265625 -0.875 C 4.742188 -1.695312 3.554688 -2.820312 2.703125 -4.25 C 1.847656 -5.6875 1.421875 -7.320312 1.421875 -9.15625 C 1.421875 -10.988281 1.847656 -12.617188 2.703125 -14.046875 C 3.554688 -15.484375 4.742188 -16.613281 6.265625 -17.4375 C 7.796875 -18.257812 9.582031 -18.671875 11.625 -18.671875 C 13.675781 -18.671875 15.460938 -18.257812 16.984375 -17.4375 C 18.515625 -16.613281 19.695312 -15.484375 20.53125 -14.046875 C 21.375 -12.617188 21.796875 -10.988281 21.796875 -9.15625 C 21.796875 -7.320312 21.375 -5.6875 20.53125 -4.25 C 19.695312 -2.820312 18.515625 -1.695312 16.984375 -0.875 C 15.460938 -0.0507812 13.675781 0.359375 11.625 0.359375 Z M 11.625 -4.8125 C 12.875 -4.84375 13.910156 -5.269531 14.734375 -6.09375 C 15.566406 -6.914062 15.984375 -7.9375 15.984375 -9.15625 C 15.984375 -10.40625 15.566406 -11.429688 14.734375 -12.234375 C 13.910156 -13.046875 12.875 -13.46875 11.625 -13.5 C 10.375 -13.46875 9.335938 -13.046875 8.515625 -12.234375 C 7.691406 -11.429688 7.28125 -10.40625 7.28125 -9.15625 C 7.28125 -7.9375 7.691406 -6.914062 8.515625 -6.09375 C 9.335938 -5.269531 10.375 -4.84375 11.625 -4.8125 Z M 11.625 -4.8125 "/>
            </g>
        </g>
    </g>
    <g fill="#000000" fill-opacity="1">
        <g transform="translate(132.236112, 64.860213)">
            <g>
                <path d="M 2.703125 0 L 2.703125 -31.359375 L 8.5625 -31.359375 L 8.5625 0 Z M 2.703125 0 "/>
            </g>
        </g>
    </g>
    <g fill="#000000" fill-opacity="1">
        <g transform="translate(141.668034, 64.860213)">
            <g>
                <path d="M 21.328125 -9.203125 L 21.328125 -8.1875 L 7.328125 -8.1875 C 7.453125 -6.875 7.863281 -5.84375 8.5625 -5.09375 C 9.257812 -4.351562 10.265625 -3.984375 11.578125 -3.984375 C 13.597656 -3.984375 14.878906 -4.757812 15.421875 -6.3125 L 21.0625 -6.3125 C 20.601562 -4.332031 19.554688 -2.722656 17.921875 -1.484375 C 16.285156 -0.253906 14.203125 0.359375 11.671875 0.359375 C 9.628906 0.359375 7.835938 -0.0351562 6.296875 -0.828125 C 4.753906 -1.617188 3.554688 -2.726562 2.703125 -4.15625 C 1.847656 -5.59375 1.421875 -7.257812 1.421875 -9.15625 C 1.421875 -11.082031 1.847656 -12.757812 2.703125 -14.1875 C 3.554688 -15.625 4.742188 -16.738281 6.265625 -17.53125 C 7.796875 -18.320312 9.535156 -18.71875 11.484375 -18.71875 C 13.472656 -18.71875 15.195312 -18.320312 16.65625 -17.53125 C 18.125 -16.738281 19.269531 -15.632812 20.09375 -14.21875 C 20.914062 -12.800781 21.328125 -11.128906 21.328125 -9.203125 Z M 11.578125 -14.234375 C 10.546875 -14.234375 9.71875 -14.007812 9.09375 -13.5625 C 8.46875 -13.125 8 -12.507812 7.6875 -11.71875 L 15.296875 -11.71875 C 14.984375 -12.507812 14.53125 -13.125 13.9375 -13.5625 C 13.34375 -14.007812 12.554688 -14.234375 11.578125 -14.234375 Z M 11.578125 -14.234375 "/>
            </g>
        </g>
    </g>
    <g fill="#000000" fill-opacity="1">
        <g transform="translate(48.996174, 97.434886)">
            <g>
                <path d="M 24.53125 -18.671875 C 26.550781 -18.671875 28.101562 -18.019531 29.1875 -16.71875 C 30.269531 -15.425781 30.8125 -13.710938 30.8125 -11.578125 L 30.8125 0 L 25 0 L 25 -10.625 C 25 -11.414062 24.742188 -12.09375 24.234375 -12.65625 C 23.734375 -13.21875 23.085938 -13.5 22.296875 -13.5 C 21.410156 -13.5 20.753906 -13.1875 20.328125 -12.5625 C 19.898438 -11.9375 19.6875 -11.289062 19.6875 -10.625 L 19.6875 0 L 13.828125 0 L 13.828125 -10.625 C 13.828125 -11.414062 13.582031 -12.09375 13.09375 -12.65625 C 12.601562 -13.21875 11.960938 -13.5 11.171875 -13.5 C 10.285156 -13.5 9.628906 -13.1875 9.203125 -12.5625 C 8.773438 -11.9375 8.5625 -11.289062 8.5625 -10.625 L 8.5625 0 L 2.703125 0 L 2.703125 -18.3125 L 8.5625 -18.3125 L 8.5625 -16.0625 C 9.175781 -16.863281 9.898438 -17.5 10.734375 -17.96875 C 11.578125 -18.4375 12.515625 -18.671875 13.546875 -18.671875 C 14.710938 -18.671875 15.742188 -18.378906 16.640625 -17.796875 C 17.535156 -17.222656 18.242188 -16.445312 18.765625 -15.46875 C 19.347656 -16.476562 20.125 -17.265625 21.09375 -17.828125 C 22.070312 -18.390625 23.21875 -18.671875 24.53125 -18.671875 Z M 24.53125 -18.671875 "/>
            </g>
        </g>
    </g>
    <g fill="#000000" fill-opacity="1">
        <g transform="translate(80.314271, 97.434886)">
            <g>
                <path d="M 23.125 -4.765625 L 23.9375 -4.765625 L 23.9375 0 C 23.726562 0.09375 23.492188 0.175781 23.234375 0.25 C 22.972656 0.320312 22.691406 0.359375 22.390625 0.359375 C 21.171875 0.359375 20.070312 0.078125 19.09375 -0.484375 C 18.113281 -1.046875 17.332031 -1.800781 16.75 -2.75 C 16.019531 -1.800781 15.128906 -1.046875 14.078125 -0.484375 C 13.023438 0.078125 11.828125 0.359375 10.484375 0.359375 C 8.804688 0.359375 7.28125 -0.0664062 5.90625 -0.921875 C 4.53125 -1.773438 3.4375 -2.914062 2.625 -4.34375 C 1.820312 -5.78125 1.421875 -7.382812 1.421875 -9.15625 C 1.421875 -10.925781 1.820312 -12.523438 2.625 -13.953125 C 3.4375 -15.390625 4.53125 -16.535156 5.90625 -17.390625 C 7.28125 -18.242188 8.804688 -18.671875 10.484375 -18.671875 C 11.554688 -18.671875 12.523438 -18.492188 13.390625 -18.140625 C 14.265625 -17.796875 15.035156 -17.316406 15.703125 -16.703125 L 15.703125 -18.3125 L 21.515625 -18.3125 L 21.515625 -6.546875 C 21.515625 -5.785156 21.679688 -5.296875 22.015625 -5.078125 C 22.359375 -4.867188 22.726562 -4.765625 23.125 -4.765625 Z M 11.625 -4.8125 C 12.8125 -4.8125 13.832031 -5.226562 14.6875 -6.0625 C 15.550781 -6.90625 15.984375 -7.9375 15.984375 -9.15625 C 15.984375 -10.375 15.550781 -11.398438 14.6875 -12.234375 C 13.832031 -13.078125 12.8125 -13.5 11.625 -13.5 C 10.40625 -13.5 9.375 -13.078125 8.53125 -12.234375 C 7.695312 -11.398438 7.28125 -10.375 7.28125 -9.15625 C 7.28125 -7.9375 7.695312 -6.90625 8.53125 -6.0625 C 9.375 -5.226562 10.40625 -4.8125 11.625 -4.8125 Z M 11.625 -4.8125 "/>
            </g>
        </g>
    </g>
    <g fill="#000000" fill-opacity="1">
        <g transform="translate(103.115987, 97.434886)">
            <g>
                <path d="M 13.6875 -18.671875 C 13.957031 -18.671875 14.222656 -18.65625 14.484375 -18.625 C 14.742188 -18.601562 14.984375 -18.5625 15.203125 -18.5 L 15.203125 -13.328125 C 14.984375 -13.378906 14.726562 -13.421875 14.4375 -13.453125 C 14.15625 -13.484375 13.84375 -13.5 13.5 -13.5 C 12.070312 -13.5 10.890625 -13.085938 9.953125 -12.265625 C 9.023438 -11.441406 8.5625 -10.269531 8.5625 -8.75 L 8.5625 0 L 2.703125 0 L 2.703125 -18.3125 L 8.5625 -18.3125 L 8.5625 -15.796875 C 9.175781 -16.679688 9.914062 -17.378906 10.78125 -17.890625 C 11.65625 -18.410156 12.625 -18.671875 13.6875 -18.671875 Z M 13.6875 -18.671875 "/>
            </g>
        </g>
    </g>
    <g fill="#000000" fill-opacity="1">
        <g transform="translate(116.394008, 97.434886)">
            <g>
                <path d="M 23.625 5.859375 L 25.3125 5.859375 L 25.3125 10.625 C 25.007812 10.71875 24.644531 10.800781 24.21875 10.875 C 23.789062 10.945312 23.347656 10.984375 22.890625 10.984375 C 21.609375 10.984375 20.414062 10.675781 19.3125 10.0625 C 18.21875 9.457031 17.34375 8.628906 16.6875 7.578125 C 16.03125 6.523438 15.703125 5.359375 15.703125 4.078125 L 15.703125 -1.609375 C 15.035156 -0.992188 14.265625 -0.507812 13.390625 -0.15625 C 12.523438 0.1875 11.554688 0.359375 10.484375 0.359375 C 8.804688 0.359375 7.28125 -0.0664062 5.90625 -0.921875 C 4.53125 -1.773438 3.4375 -2.914062 2.625 -4.34375 C 1.820312 -5.78125 1.421875 -7.382812 1.421875 -9.15625 C 1.421875 -10.925781 1.820312 -12.523438 2.625 -13.953125 C 3.4375 -15.390625 4.53125 -16.535156 5.90625 -17.390625 C 7.28125 -18.242188 8.804688 -18.671875 10.484375 -18.671875 C 11.554688 -18.671875 12.523438 -18.492188 13.390625 -18.140625 C 14.265625 -17.796875 15.035156 -17.316406 15.703125 -16.703125 L 15.703125 -18.3125 L 21.515625 -18.3125 L 21.515625 3.390625 C 21.515625 4.148438 21.710938 4.75 22.109375 5.1875 C 22.503906 5.632812 23.007812 5.859375 23.625 5.859375 Z M 11.625 -4.8125 C 12.8125 -4.8125 13.832031 -5.226562 14.6875 -6.0625 C 15.550781 -6.90625 15.984375 -7.9375 15.984375 -9.15625 C 15.984375 -10.375 15.550781 -11.398438 14.6875 -12.234375 C 13.832031 -13.078125 12.8125 -13.5 11.625 -13.5 C 10.40625 -13.5 9.375 -13.078125 8.53125 -12.234375 C 7.695312 -11.398438 7.28125 -10.375 7.28125 -9.15625 C 7.28125 -7.9375 7.695312 -6.90625 8.53125 -6.0625 C 9.375 -5.226562 10.40625 -4.8125 11.625 -4.8125 Z M 11.625 -4.8125 "/>
            </g>
        </g>
    </g>
    <g fill="#000000" fill-opacity="1">
        <g transform="translate(138.783645, 97.434886)">
            <g>
                <path d="M 10.890625 0.359375 C 8.117188 0.359375 5.988281 -0.304688 4.5 -1.640625 C 3.019531 -2.984375 2.28125 -4.769531 2.28125 -7 L 2.28125 -18.3125 L 8.15625 -18.3125 L 8.15625 -7.78125 C 8.15625 -6.925781 8.421875 -6.21875 8.953125 -5.65625 C 9.484375 -5.09375 10.128906 -4.8125 10.890625 -4.8125 C 11.691406 -4.8125 12.359375 -5.09375 12.890625 -5.65625 C 13.421875 -6.21875 13.6875 -6.925781 13.6875 -7.78125 L 13.6875 -18.3125 L 19.5 -18.3125 L 19.5 -7 C 19.5 -4.769531 18.757812 -2.984375 17.28125 -1.640625 C 15.800781 -0.304688 13.671875 0.359375 10.890625 0.359375 Z M 10.890625 0.359375 "/>
            </g>
        </g>
    </g>
    <g fill="#000000" fill-opacity="1">
        <g transform="translate(158.792353, 97.434886)">
            <g>
                <path d="M 21.328125 -9.203125 L 21.328125 -8.1875 L 7.328125 -8.1875 C 7.453125 -6.875 7.863281 -5.84375 8.5625 -5.09375 C 9.257812 -4.351562 10.265625 -3.984375 11.578125 -3.984375 C 13.597656 -3.984375 14.878906 -4.757812 15.421875 -6.3125 L 21.0625 -6.3125 C 20.601562 -4.332031 19.554688 -2.722656 17.921875 -1.484375 C 16.285156 -0.253906 14.203125 0.359375 11.671875 0.359375 C 9.628906 0.359375 7.835938 -0.0351562 6.296875 -0.828125 C 4.753906 -1.617188 3.554688 -2.726562 2.703125 -4.15625 C 1.847656 -5.59375 1.421875 -7.257812 1.421875 -9.15625 C 1.421875 -11.082031 1.847656 -12.757812 2.703125 -14.1875 C 3.554688 -15.625 4.742188 -16.738281 6.265625 -17.53125 C 7.796875 -18.320312 9.535156 -18.71875 11.484375 -18.71875 C 13.472656 -18.71875 15.195312 -18.320312 16.65625 -17.53125 C 18.125 -16.738281 19.269531 -15.632812 20.09375 -14.21875 C 20.914062 -12.800781 21.328125 -11.128906 21.328125 -9.203125 Z M 11.578125 -14.234375 C 10.546875 -14.234375 9.71875 -14.007812 9.09375 -13.5625 C 8.46875 -13.125 8 -12.507812 7.6875 -11.71875 L 15.296875 -11.71875 C 14.984375 -12.507812 14.53125 -13.125 13.9375 -13.5625 C 13.34375 -14.007812 12.554688 -14.234375 11.578125 -14.234375 Z M 11.578125 -14.234375 "/>
            </g>
        </g>
    </g>
    <g fill="#000000" fill-opacity="1">
        <g transform="translate(179.671015, 97.434886)">
            <g>
                <path d="M 17.265625 -18.3125 L 9.5625 -4.859375 L 16.984375 -4.859375 L 16.984375 0 L 0.96875 0 L 8.609375 -13.453125 L 1.921875 -13.453125 L 1.921875 -18.3125 Z M 17.265625 -18.3125 "/>
            </g>
        </g>
    </g>
</svg>