<svg xmlns="http://www.w3.org/2000/svg" xmlns:xlink="http://www.w3.org/1999/xlink" width="317" zoomAndPan="magnify" viewBox="0 0 237.75 135.000003" height="180" preserveAspectRatio="xMidYMid meet" version="1.0"><defs><g/></defs><g fill="#709ead" fill-opacity="1"><g transform="translate(33.408879, 65.951489)"><g><path d="M 48.84375 -48.375 L 49 -0.09375 L 0 0 L 0 -48.28125 L 24.5 -36.828125 Z M 48.84375 -48.375 "/></g></g></g><g fill="#709ead" fill-opacity="1"><g transform="translate(33.408879, 119.894834)"><g><path d="M 48.84375 -48.375 L 49 -0.09375 L 0 0 L 0 -48.28125 L 24.5 -36.828125 Z M 48.84375 -48.375 "/></g></g></g><g fill="#ffffff" fill-opacity="1"><g transform="translate(49.171332, 65.095699)"><g><path d="M 24.640625 -18.75 C 26.660156 -18.75 28.210938 -18.097656 29.296875 -16.796875 C 30.378906 -15.492188 30.921875 -13.769531 30.921875 -11.625 L 30.921875 0 L 25.09375 0 L 25.09375 -10.65625 C 25.09375 -11.457031 24.835938 -12.140625 24.328125 -12.703125 C 23.828125 -13.273438 23.175781 -13.5625 22.375 -13.5625 C 21.488281 -13.5625 20.832031 -13.242188 20.40625 -12.609375 C 19.976562 -11.984375 19.765625 -11.332031 19.765625 -10.65625 L 19.765625 0 L 13.875 0 L 13.875 -10.65625 C 13.875 -11.457031 13.628906 -12.140625 13.140625 -12.703125 C 12.648438 -13.273438 12.007812 -13.5625 11.21875 -13.5625 C 10.320312 -13.5625 9.660156 -13.242188 9.234375 -12.609375 C 8.804688 -11.984375 8.59375 -11.332031 8.59375 -10.65625 L 8.59375 0 L 2.71875 0 L 2.71875 -18.390625 L 8.59375 -18.390625 L 8.59375 -16.125 C 9.207031 -16.925781 9.9375 -17.5625 10.78125 -18.03125 C 11.625 -18.507812 12.566406 -18.75 13.609375 -18.75 C 14.765625 -18.75 15.796875 -18.457031 16.703125 -17.875 C 17.609375 -17.289062 18.320312 -16.507812 18.84375 -15.53125 C 19.425781 -16.539062 20.207031 -17.328125 21.1875 -17.890625 C 22.164062 -18.460938 23.316406 -18.75 24.640625 -18.75 Z M 24.640625 -18.75 "/></g></g></g><g fill="#ffffff" fill-opacity="1"><g transform="translate(80.603131, 65.095699)"><g><path d="M 5.75 -21.46875 C 4.882812 -21.46875 4.128906 -21.785156 3.484375 -22.421875 C 2.847656 -23.066406 2.53125 -23.816406 2.53125 -24.671875 C 2.53125 -25.566406 2.847656 -26.328125 3.484375 -26.953125 C 4.128906 -27.578125 4.882812 -27.890625 5.75 -27.890625 C 6.632812 -27.890625 7.390625 -27.578125 8.015625 -26.953125 C 8.648438 -26.328125 8.96875 -25.566406 8.96875 -24.671875 C 8.96875 -23.816406 8.648438 -23.066406 8.015625 -22.421875 C 7.390625 -21.785156 6.632812 -21.46875 5.75 -21.46875 Z M 2.796875 0 L 2.796875 -18.390625 L 8.640625 -18.390625 L 8.640625 0 Z M 2.796875 0 "/></g></g></g><g fill="#ffffff" fill-opacity="1"><g transform="translate(90.253107, 65.095699)"><g><path d="M 11.671875 0.375 C 9.617188 0.375 7.828125 -0.0351562 6.296875 -0.859375 C 4.765625 -1.691406 3.566406 -2.828125 2.703125 -4.265625 C 1.847656 -5.710938 1.421875 -7.351562 1.421875 -9.1875 C 1.421875 -11.03125 1.847656 -12.671875 2.703125 -14.109375 C 3.566406 -15.546875 4.765625 -16.675781 6.296875 -17.5 C 7.828125 -18.332031 9.617188 -18.75 11.671875 -18.75 C 14.429688 -18.75 16.695312 -18.019531 18.46875 -16.5625 C 20.25 -15.113281 21.335938 -13.238281 21.734375 -10.9375 L 15.671875 -10.9375 C 15.367188 -11.726562 14.863281 -12.351562 14.15625 -12.8125 C 13.445312 -13.28125 12.617188 -13.53125 11.671875 -13.5625 C 10.410156 -13.53125 9.367188 -13.109375 8.546875 -12.296875 C 7.722656 -11.484375 7.3125 -10.445312 7.3125 -9.1875 C 7.3125 -7.96875 7.722656 -6.941406 8.546875 -6.109375 C 9.367188 -5.285156 10.410156 -4.859375 11.671875 -4.828125 C 12.617188 -4.859375 13.445312 -5.109375 14.15625 -5.578125 C 14.863281 -6.054688 15.367188 -6.675781 15.671875 -7.4375 L 21.734375 -7.4375 C 21.335938 -5.144531 20.25 -3.269531 18.46875 -1.8125 C 16.695312 -0.351562 14.429688 0.375 11.671875 0.375 Z M 11.671875 0.375 "/></g></g></g><g fill="#ffffff" fill-opacity="1"><g transform="translate(111.20757, 65.095699)"><g><path d="M 11.671875 0.375 C 9.617188 0.375 7.828125 -0.0351562 6.296875 -0.859375 C 4.765625 -1.691406 3.566406 -2.828125 2.703125 -4.265625 C 1.847656 -5.710938 1.421875 -7.351562 1.421875 -9.1875 C 1.421875 -11.03125 1.847656 -12.671875 2.703125 -14.109375 C 3.566406 -15.546875 4.765625 -16.675781 6.296875 -17.5 C 7.828125 -18.332031 9.617188 -18.75 11.671875 -18.75 C 13.722656 -18.75 15.515625 -18.332031 17.046875 -17.5 C 18.578125 -16.675781 19.765625 -15.546875 20.609375 -14.109375 C 21.453125 -12.671875 21.875 -11.03125 21.875 -9.1875 C 21.875 -7.351562 21.453125 -5.710938 20.609375 -4.265625 C 19.765625 -2.828125 18.578125 -1.691406 17.046875 -0.859375 C 15.515625 -0.0351562 13.722656 0.375 11.671875 0.375 Z M 11.671875 -4.828125 C 12.929688 -4.859375 13.972656 -5.285156 14.796875 -6.109375 C 15.617188 -6.941406 16.03125 -7.96875 16.03125 -9.1875 C 16.03125 -10.445312 15.617188 -11.484375 14.796875 -12.296875 C 13.972656 -13.109375 12.929688 -13.53125 11.671875 -13.5625 C 10.410156 -13.53125 9.367188 -13.109375 8.546875 -12.296875 C 7.722656 -11.484375 7.3125 -10.445312 7.3125 -9.1875 C 7.3125 -7.96875 7.722656 -6.941406 8.546875 -6.109375 C 9.367188 -5.285156 10.410156 -4.859375 11.671875 -4.828125 Z M 11.671875 -4.828125 "/></g></g></g><g fill="#ffffff" fill-opacity="1"><g transform="translate(132.713476, 65.095699)"><g><path d="M 2.71875 0 L 2.71875 -31.484375 L 8.59375 -31.484375 L 8.59375 0 Z M 2.71875 0 "/></g></g></g><g fill="#ffffff" fill-opacity="1"><g transform="translate(142.179641, 65.095699)"><g><path d="M 21.421875 -9.234375 L 21.421875 -8.21875 L 7.359375 -8.21875 C 7.472656 -6.90625 7.882812 -5.875 8.59375 -5.125 C 9.300781 -4.375 10.3125 -4 11.625 -4 C 13.644531 -4 14.929688 -4.78125 15.484375 -6.34375 L 21.140625 -6.34375 C 20.679688 -4.351562 19.628906 -2.734375 17.984375 -1.484375 C 16.347656 -0.242188 14.257812 0.375 11.71875 0.375 C 9.664062 0.375 7.863281 -0.0195312 6.3125 -0.8125 C 4.769531 -1.613281 3.566406 -2.734375 2.703125 -4.171875 C 1.847656 -5.617188 1.421875 -7.289062 1.421875 -9.1875 C 1.421875 -11.125 1.847656 -12.8125 2.703125 -14.25 C 3.566406 -15.6875 4.765625 -16.800781 6.296875 -17.59375 C 7.828125 -18.394531 9.570312 -18.796875 11.53125 -18.796875 C 13.519531 -18.796875 15.25 -18.394531 16.71875 -17.59375 C 18.195312 -16.800781 19.347656 -15.691406 20.171875 -14.265625 C 21.003906 -12.835938 21.421875 -11.160156 21.421875 -9.234375 Z M 11.625 -14.296875 C 10.582031 -14.296875 9.75 -14.070312 9.125 -13.625 C 8.5 -13.175781 8.03125 -12.554688 7.71875 -11.765625 L 15.34375 -11.765625 C 15.039062 -12.554688 14.585938 -13.175781 13.984375 -13.625 C 13.390625 -14.070312 12.601562 -14.296875 11.625 -14.296875 Z M 11.625 -14.296875 "/></g></g></g><g fill="#ffffff" fill-opacity="1"><g transform="translate(49.171332, 97.788636)"><g><path d="M 24.640625 -18.75 C 26.660156 -18.75 28.210938 -18.097656 29.296875 -16.796875 C 30.378906 -15.492188 30.921875 -13.769531 30.921875 -11.625 L 30.921875 0 L 25.09375 0 L 25.09375 -10.65625 C 25.09375 -11.457031 24.835938 -12.140625 24.328125 -12.703125 C 23.828125 -13.273438 23.175781 -13.5625 22.375 -13.5625 C 21.488281 -13.5625 20.832031 -13.242188 20.40625 -12.609375 C 19.976562 -11.984375 19.765625 -11.332031 19.765625 -10.65625 L 19.765625 0 L 13.875 0 L 13.875 -10.65625 C 13.875 -11.457031 13.628906 -12.140625 13.140625 -12.703125 C 12.648438 -13.273438 12.007812 -13.5625 11.21875 -13.5625 C 10.320312 -13.5625 9.660156 -13.242188 9.234375 -12.609375 C 8.804688 -11.984375 8.59375 -11.332031 8.59375 -10.65625 L 8.59375 0 L 2.71875 0 L 2.71875 -18.390625 L 8.59375 -18.390625 L 8.59375 -16.125 C 9.207031 -16.925781 9.9375 -17.5625 10.78125 -18.03125 C 11.625 -18.507812 12.566406 -18.75 13.609375 -18.75 C 14.765625 -18.75 15.796875 -18.457031 16.703125 -17.875 C 17.609375 -17.289062 18.320312 -16.507812 18.84375 -15.53125 C 19.425781 -16.539062 20.207031 -17.328125 21.1875 -17.890625 C 22.164062 -18.460938 23.316406 -18.75 24.640625 -18.75 Z M 24.640625 -18.75 "/></g></g></g><g fill="#ffffff" fill-opacity="1"><g transform="translate(80.603131, 97.788636)"><g><path d="M 23.203125 -4.78125 L 24.03125 -4.78125 L 24.03125 0 C 23.820312 0.09375 23.585938 0.175781 23.328125 0.25 C 23.066406 0.332031 22.78125 0.375 22.46875 0.375 C 21.25 0.375 20.144531 0.09375 19.15625 -0.46875 C 18.175781 -1.039062 17.394531 -1.800781 16.8125 -2.75 C 16.082031 -1.800781 15.1875 -1.039062 14.125 -0.46875 C 13.070312 0.09375 11.875 0.375 10.53125 0.375 C 8.84375 0.375 7.304688 -0.0507812 5.921875 -0.90625 C 4.546875 -1.769531 3.453125 -2.921875 2.640625 -4.359375 C 1.828125 -5.804688 1.421875 -7.414062 1.421875 -9.1875 C 1.421875 -10.96875 1.828125 -12.578125 2.640625 -14.015625 C 3.453125 -15.453125 4.546875 -16.597656 5.921875 -17.453125 C 7.304688 -18.316406 8.84375 -18.75 10.53125 -18.75 C 11.59375 -18.75 12.5625 -18.570312 13.4375 -18.21875 C 14.3125 -17.863281 15.085938 -17.382812 15.765625 -16.78125 L 15.765625 -18.390625 L 21.59375 -18.390625 L 21.59375 -6.578125 C 21.59375 -5.804688 21.757812 -5.3125 22.09375 -5.09375 C 22.4375 -4.882812 22.804688 -4.78125 23.203125 -4.78125 Z M 11.671875 -4.828125 C 12.867188 -4.828125 13.894531 -5.25 14.75 -6.09375 C 15.601562 -6.9375 16.03125 -7.96875 16.03125 -9.1875 C 16.03125 -10.414062 15.601562 -11.453125 14.75 -12.296875 C 13.894531 -13.140625 12.867188 -13.5625 11.671875 -13.5625 C 10.441406 -13.5625 9.40625 -13.140625 8.5625 -12.296875 C 7.726562 -11.453125 7.3125 -10.414062 7.3125 -9.1875 C 7.3125 -7.96875 7.726562 -6.9375 8.5625 -6.09375 C 9.40625 -5.25 10.441406 -4.828125 11.671875 -4.828125 Z M 11.671875 -4.828125 "/></g></g></g><g fill="#ffffff" fill-opacity="1"><g transform="translate(103.487629, 97.788636)"><g><path d="M 13.734375 -18.75 C 14.015625 -18.75 14.285156 -18.734375 14.546875 -18.703125 C 14.804688 -18.671875 15.039062 -18.625 15.25 -18.5625 L 15.25 -13.375 C 15.039062 -13.4375 14.789062 -13.484375 14.5 -13.515625 C 14.207031 -13.546875 13.894531 -13.5625 13.5625 -13.5625 C 12.113281 -13.5625 10.921875 -13.144531 9.984375 -12.3125 C 9.054688 -11.488281 8.59375 -10.3125 8.59375 -8.78125 L 8.59375 0 L 2.71875 0 L 2.71875 -18.390625 L 8.59375 -18.390625 L 8.59375 -15.859375 C 9.207031 -16.742188 9.945312 -17.445312 10.8125 -17.96875 C 11.6875 -18.488281 12.660156 -18.75 13.734375 -18.75 Z M 13.734375 -18.75 "/></g></g></g><g fill="#ffffff" fill-opacity="1"><g transform="translate(116.813857, 97.788636)"><g><path d="M 23.71875 5.875 L 25.421875 5.875 L 25.421875 10.65625 C 25.109375 10.75 24.738281 10.832031 24.3125 10.90625 C 23.882812 10.988281 23.441406 11.03125 22.984375 11.03125 C 21.691406 11.03125 20.492188 10.722656 19.390625 10.109375 C 18.285156 9.492188 17.40625 8.65625 16.75 7.59375 C 16.09375 6.539062 15.765625 5.375 15.765625 4.09375 L 15.765625 -1.609375 C 15.085938 -0.992188 14.3125 -0.507812 13.4375 -0.15625 C 12.5625 0.195312 11.59375 0.375 10.53125 0.375 C 8.84375 0.375 7.304688 -0.0507812 5.921875 -0.90625 C 4.546875 -1.769531 3.453125 -2.921875 2.640625 -4.359375 C 1.828125 -5.804688 1.421875 -7.414062 1.421875 -9.1875 C 1.421875 -10.96875 1.828125 -12.578125 2.640625 -14.015625 C 3.453125 -15.453125 4.546875 -16.597656 5.921875 -17.453125 C 7.304688 -18.316406 8.84375 -18.75 10.53125 -18.75 C 11.59375 -18.75 12.5625 -18.570312 13.4375 -18.21875 C 14.3125 -17.863281 15.085938 -17.382812 15.765625 -16.78125 L 15.765625 -18.390625 L 21.59375 -18.390625 L 21.59375 3.40625 C 21.59375 4.164062 21.789062 4.765625 22.1875 5.203125 C 22.59375 5.648438 23.101562 5.875 23.71875 5.875 Z M 11.671875 -4.828125 C 12.867188 -4.828125 13.894531 -5.25 14.75 -6.09375 C 15.601562 -6.9375 16.03125 -7.96875 16.03125 -9.1875 C 16.03125 -10.414062 15.601562 -11.453125 14.75 -12.296875 C 13.894531 -13.140625 12.867188 -13.5625 11.671875 -13.5625 C 10.441406 -13.5625 9.40625 -13.140625 8.5625 -12.296875 C 7.726562 -11.453125 7.3125 -10.414062 7.3125 -9.1875 C 7.3125 -7.96875 7.726562 -6.9375 8.5625 -6.09375 C 9.40625 -5.25 10.441406 -4.828125 11.671875 -4.828125 Z M 11.671875 -4.828125 "/></g></g></g><g fill="#ffffff" fill-opacity="1"><g transform="translate(139.28478, 97.788636)"><g><path d="M 10.9375 0.375 C 8.144531 0.375 6.003906 -0.296875 4.515625 -1.640625 C 3.035156 -2.992188 2.296875 -4.789062 2.296875 -7.03125 L 2.296875 -18.390625 L 8.1875 -18.390625 L 8.1875 -7.8125 C 8.1875 -6.957031 8.453125 -6.242188 8.984375 -5.671875 C 9.515625 -5.109375 10.164062 -4.828125 10.9375 -4.828125 C 11.726562 -4.828125 12.390625 -5.109375 12.921875 -5.671875 C 13.460938 -6.242188 13.734375 -6.957031 13.734375 -7.8125 L 13.734375 -18.390625 L 19.578125 -18.390625 L 19.578125 -7.03125 C 19.578125 -4.789062 18.832031 -2.992188 17.34375 -1.640625 C 15.863281 -0.296875 13.726562 0.375 10.9375 0.375 Z M 10.9375 0.375 "/></g></g></g><g fill="#ffffff" fill-opacity="1"><g transform="translate(159.366131, 97.788636)"><g><path d="M 21.421875 -9.234375 L 21.421875 -8.21875 L 7.359375 -8.21875 C 7.472656 -6.90625 7.882812 -5.875 8.59375 -5.125 C 9.300781 -4.375 10.3125 -4 11.625 -4 C 13.644531 -4 14.929688 -4.78125 15.484375 -6.34375 L 21.140625 -6.34375 C 20.679688 -4.351562 19.628906 -2.734375 17.984375 -1.484375 C 16.347656 -0.242188 14.257812 0.375 11.71875 0.375 C 9.664062 0.375 7.863281 -0.0195312 6.3125 -0.8125 C 4.769531 -1.613281 3.566406 -2.734375 2.703125 -4.171875 C 1.847656 -5.617188 1.421875 -7.289062 1.421875 -9.1875 C 1.421875 -11.125 1.847656 -12.8125 2.703125 -14.25 C 3.566406 -15.6875 4.765625 -16.800781 6.296875 -17.59375 C 7.828125 -18.394531 9.570312 -18.796875 11.53125 -18.796875 C 13.519531 -18.796875 15.25 -18.394531 16.71875 -17.59375 C 18.195312 -16.800781 19.347656 -15.691406 20.171875 -14.265625 C 21.003906 -12.835938 21.421875 -11.160156 21.421875 -9.234375 Z M 11.625 -14.296875 C 10.582031 -14.296875 9.75 -14.070312 9.125 -13.625 C 8.5 -13.175781 8.03125 -12.554688 7.71875 -11.765625 L 15.34375 -11.765625 C 15.039062 -12.554688 14.585938 -13.175781 13.984375 -13.625 C 13.390625 -14.070312 12.601562 -14.296875 11.625 -14.296875 Z M 11.625 -14.296875 "/></g></g></g><g fill="#ffffff" fill-opacity="1"><g transform="translate(180.320594, 97.788636)"><g><path d="M 17.328125 -18.390625 L 9.609375 -4.875 L 17.046875 -4.875 L 17.046875 0 L 0.96875 0 L 8.640625 -13.515625 L 1.9375 -13.515625 L 1.9375 -18.390625 Z M 17.328125 -18.390625 "/></g></g></g></svg>